<mxfile host="app.diagrams.net" agent="Mozilla/5.0 (Windows NT 10.0; Win64; x64) AppleWebKit/537.36 (KHTML, like Gecko) Chrome/135.0.0.0 Safari/537.36" version="26.2.14">
  <diagram name="Page-1" id="2YBvvXClWsGukQMizWep">
    <mxGraphModel dx="946" dy="563" grid="1" gridSize="10" guides="1" tooltips="1" connect="1" arrows="1" fold="1" page="1" pageScale="1" pageWidth="850" pageHeight="1100" math="0" shadow="0">
      <root>
        <mxCell id="0" />
        <mxCell id="1" parent="0" />
        <mxCell id="8piDZNv3QXsm2f2BKSe--4" value="" style="edgeStyle=orthogonalEdgeStyle;rounded=0;orthogonalLoop=1;jettySize=auto;html=1;" edge="1" parent="1" source="8piDZNv3QXsm2f2BKSe--2" target="8piDZNv3QXsm2f2BKSe--3">
          <mxGeometry relative="1" as="geometry">
            <Array as="points">
              <mxPoint x="130" y="70" />
              <mxPoint x="130" y="70" />
            </Array>
          </mxGeometry>
        </mxCell>
        <mxCell id="8piDZNv3QXsm2f2BKSe--2" value="433 MHz Remote" style="rounded=1;whiteSpace=wrap;html=1;" vertex="1" parent="1">
          <mxGeometry x="70" y="10" width="120" height="60" as="geometry" />
        </mxCell>
        <mxCell id="8piDZNv3QXsm2f2BKSe--6" value="" style="edgeStyle=orthogonalEdgeStyle;rounded=0;orthogonalLoop=1;jettySize=auto;html=1;" edge="1" parent="1" source="8piDZNv3QXsm2f2BKSe--3" target="8piDZNv3QXsm2f2BKSe--5">
          <mxGeometry relative="1" as="geometry" />
        </mxCell>
        <mxCell id="8piDZNv3QXsm2f2BKSe--3" value="RXB6 Receiver Module" style="rounded=1;whiteSpace=wrap;html=1;" vertex="1" parent="1">
          <mxGeometry x="70" y="100" width="120" height="60" as="geometry" />
        </mxCell>
        <mxCell id="8piDZNv3QXsm2f2BKSe--9" value="" style="edgeStyle=orthogonalEdgeStyle;rounded=0;orthogonalLoop=1;jettySize=auto;html=1;" edge="1" parent="1" source="8piDZNv3QXsm2f2BKSe--5" target="8piDZNv3QXsm2f2BKSe--8">
          <mxGeometry relative="1" as="geometry" />
        </mxCell>
        <mxCell id="8piDZNv3QXsm2f2BKSe--5" value="Nexys A7 FPGA Board" style="rounded=1;whiteSpace=wrap;html=1;" vertex="1" parent="1">
          <mxGeometry x="70" y="190" width="120" height="60" as="geometry" />
        </mxCell>
        <mxCell id="8piDZNv3QXsm2f2BKSe--8" value="Verilog FSM Decoder" style="rounded=1;whiteSpace=wrap;html=1;" vertex="1" parent="1">
          <mxGeometry x="70" y="280" width="120" height="60" as="geometry" />
        </mxCell>
        <mxCell id="8piDZNv3QXsm2f2BKSe--14" value="" style="edgeStyle=orthogonalEdgeStyle;rounded=0;orthogonalLoop=1;jettySize=auto;html=1;" edge="1" parent="1" target="8piDZNv3QXsm2f2BKSe--16">
          <mxGeometry relative="1" as="geometry">
            <mxPoint x="130" y="340" as="sourcePoint" />
          </mxGeometry>
        </mxCell>
        <mxCell id="8piDZNv3QXsm2f2BKSe--15" value="" style="edgeStyle=orthogonalEdgeStyle;rounded=0;orthogonalLoop=1;jettySize=auto;html=1;" edge="1" parent="1" source="8piDZNv3QXsm2f2BKSe--16" target="8piDZNv3QXsm2f2BKSe--17">
          <mxGeometry relative="1" as="geometry" />
        </mxCell>
        <mxCell id="8piDZNv3QXsm2f2BKSe--16" value="UART Transmitter" style="rounded=1;whiteSpace=wrap;html=1;" vertex="1" parent="1">
          <mxGeometry x="70" y="370" width="120" height="60" as="geometry" />
        </mxCell>
        <mxCell id="8piDZNv3QXsm2f2BKSe--17" value="PC Terminal (PuTTY)" style="rounded=1;whiteSpace=wrap;html=1;" vertex="1" parent="1">
          <mxGeometry x="70" y="460" width="120" height="60" as="geometry" />
        </mxCell>
      </root>
    </mxGraphModel>
  </diagram>
</mxfile>
